<svg xmlns="http://www.w3.org/2000/svg" viewBox="-2396.788 -554.819 272.283 86.939">
  <defs>
    <style>
      .cls-1 {
        fill: #424242;
      }

      .cls-2 {
        fill: #cbcbcb;
      }
    </style>
  </defs>
  <g id="Group_366" data-name="Group 366" transform="translate(-2396.788 -554.819)">
    <path id="Path_81" data-name="Path 81" class="cls-1" d="M38.2,60.294c-.358,5.017-2.222,9.031-5.59,11.9S24.8,76.564,19.352,76.564c-6.02,0-10.751-2.007-14.191-6.092C1.72,66.458,0,60.868,0,53.844V50.977A28.539,28.539,0,0,1,2.365,39.008a17.543,17.543,0,0,1,6.809-7.884A18.82,18.82,0,0,1,19.495,28.4c5.375,0,9.747,1.433,13.044,4.372,3.3,2.867,5.232,6.952,5.734,12.184H28.6c-.215-3.01-1.075-5.232-2.509-6.594s-3.655-2.079-6.594-2.079c-3.225,0-5.662,1.147-7.239,3.44S9.819,45.6,9.819,50.475v3.512c0,5.089.788,8.744,2.294,11.109s3.942,3.512,7.239,3.512c3.01,0,5.232-.717,6.666-2.079,1.505-1.362,2.294-3.44,2.509-6.307H38.2Z" transform="translate(0 -8.045)"/>
    <path id="Path_82" data-name="Path 82" class="cls-1" d="M75.573,80.678a10.979,10.979,0,0,1-.932-3.154,11.231,11.231,0,0,1-8.816,3.8,12.391,12.391,0,0,1-8.457-2.939A9.752,9.752,0,0,1,54,70.859a9.91,9.91,0,0,1,4.085-8.529c2.724-2.007,6.666-2.939,11.9-3.01h4.3V57.313a6.093,6.093,0,0,0-1.218-3.87,5.091,5.091,0,0,0-3.942-1.433,5.205,5.205,0,0,0-3.655,1.147,3.9,3.9,0,0,0-1.362,3.082H54.788a9.518,9.518,0,0,1,1.863-5.59,11.763,11.763,0,0,1,5.3-4.014A18.766,18.766,0,0,1,69.625,45.2c4.3,0,7.669,1.075,10.249,3.225,2.509,2.15,3.8,5.16,3.8,9.1V72.651a17.192,17.192,0,0,0,1.362,7.526v.573H75.573ZM67.9,74.227a7.651,7.651,0,0,0,3.8-.932,6.532,6.532,0,0,0,2.58-2.437v-6.02H70.771c-4.659,0-7.167,1.577-7.454,4.8v.573a3.785,3.785,0,0,0,1.218,2.867A5.031,5.031,0,0,0,67.9,74.227Z" transform="translate(-15.297 -12.804)"/>
    <path id="Path_83" data-name="Path 83" class="cls-1" d="M109.817,75.154H100.5V25.7h9.317Z" transform="translate(-28.469 -7.28)"/>
    <path id="Path_84" data-name="Path 84" class="cls-1" d="M133.973,81.295a17.087,17.087,0,0,1-12.471-4.73c-3.225-3.154-4.8-7.311-4.8-12.543V63.09a21,21,0,0,1,2.007-9.389,15.491,15.491,0,0,1,5.734-6.379A16.034,16.034,0,0,1,132.9,45.1c4.73,0,8.529,1.505,11.253,4.515s4.085,7.239,4.085,12.758v3.8H126.017a8.479,8.479,0,0,0,2.724,5.447,8.286,8.286,0,0,0,5.734,2.078,10.023,10.023,0,0,0,8.386-3.87l4.587,5.089a13.306,13.306,0,0,1-5.662,4.587A18.668,18.668,0,0,1,133.973,81.295ZM132.9,52.626a5.94,5.94,0,0,0-4.515,1.863,9.8,9.8,0,0,0-2.222,5.375h12.973v-.717a7.057,7.057,0,0,0-1.648-4.8A5.946,5.946,0,0,0,132.9,52.626Z" transform="translate(-33.058 -12.776)"/>
    <path id="Path_85" data-name="Path 85" class="cls-1" d="M172.844,45.845l.287,4.014A12.247,12.247,0,0,1,183.165,45.2c3.727,0,6.451,1.075,8.242,3.225s2.724,5.375,2.8,9.747V80.678h-9.317V58.316q0-3.01-1.29-4.3a5.931,5.931,0,0,0-4.3-1.362,6.36,6.36,0,0,0-5.877,3.369V80.678H164.1V45.845Z" transform="translate(-46.486 -12.804)"/>
    <path id="Path_86" data-name="Path 86" class="cls-1" d="M277.373,80.706a10.978,10.978,0,0,1-.932-3.154,11.231,11.231,0,0,1-8.816,3.8,12.391,12.391,0,0,1-8.457-2.939,9.605,9.605,0,0,1-3.369-7.454,9.91,9.91,0,0,1,4.085-8.529c2.724-2.007,6.665-2.939,11.9-3.01h4.3V57.413a6.093,6.093,0,0,0-1.218-3.87,5.091,5.091,0,0,0-3.942-1.433,5.205,5.205,0,0,0-3.655,1.147,3.9,3.9,0,0,0-1.362,3.082h-9.317a9.518,9.518,0,0,1,1.863-5.59,11.763,11.763,0,0,1,5.3-4.014,18.766,18.766,0,0,1,7.669-1.433c4.3,0,7.669,1.075,10.249,3.225,2.509,2.15,3.8,5.16,3.8,9.1V72.751a17.191,17.191,0,0,0,1.362,7.526v.573h-9.461Zm-7.741-6.451a7.65,7.65,0,0,0,3.8-.932,6.532,6.532,0,0,0,2.58-2.437v-6.02H272.5c-4.659,0-7.167,1.577-7.454,4.8v.573a3.785,3.785,0,0,0,1.218,2.867A5.169,5.169,0,0,0,269.633,74.256Z" transform="translate(-72.462 -12.832)"/>
    <path id="Path_87" data-name="Path 87" class="cls-1" d="M321.338,54.589a32.028,32.028,0,0,0-3.369-.287c-3.512,0-5.805,1.218-6.952,3.584V80.678H301.7V45.845h8.816L310.8,50c1.863-3.225,4.444-4.8,7.741-4.8a9.243,9.243,0,0,1,2.867.43Z" transform="translate(-85.464 -12.804)"/>
    <path id="Path_88" data-name="Path 88" class="cls-1" d="M345.906,34.1v8.529h5.949v6.809h-5.949V66.854a4.218,4.218,0,0,0,.717,2.8,3.7,3.7,0,0,0,2.867.86,15.549,15.549,0,0,0,2.724-.215v7.024a18.69,18.69,0,0,1-5.662.86c-6.522,0-9.819-3.3-9.962-9.891V49.51H331.5V42.7h5.089V34.1Z" transform="translate(-93.906 -9.66)"/>
    <path id="Path_89" data-name="Path 89" class="cls-2" d="M285.342,77.98l-10.894-9.317v4.515h-80.13V4.372H57.066V0l-5.3,4.372h0L46.1,9.031l10.894,9.317V13.689H184.929V36.123a10.759,10.759,0,0,0-8.386-3.8,11.757,11.757,0,0,0-9.962,4.8c-2.437,3.225-3.655,7.526-3.655,12.973,0,5.734,1.218,10.249,3.727,13.474a11.869,11.869,0,0,0,9.891,4.874,10.905,10.905,0,0,0,8.457-3.8V82.423h89.447v4.515ZM178.909,60.993a5.5,5.5,0,0,1-4.945-2.652q-1.72-2.58-1.72-7.526c0-7.311,2.222-10.966,6.737-10.966A6.113,6.113,0,0,1,185,43.505V57.338A6.277,6.277,0,0,1,178.909,60.993Z" transform="translate(-13.059)"/>
  </g>
</svg>
